<?xml version="1.0" standalone="no"?>
<!DOCTYPE svg PUBLIC "-//W3C//DTD SVG 20010904//EN"
 "http://www.w3.org/TR/2001/REC-SVG-20010904/DTD/svg10.dtd">
<svg version="1.0" xmlns="http://www.w3.org/2000/svg"
 width="900.000000pt" height="900.000000pt" viewBox="0 0 900.000000 900.000000"
 preserveAspectRatio="xMidYMid meet">
<metadata>
Created by potrace 1.10, written by Peter Selinger 2001-2011
</metadata>
<g transform="translate(0.000000,900.000000) scale(0.100000,-0.100000)"
fill="#2ed219" stroke="none">
<path d="M4491 8929 c-21 -17 -22 -22 -11 -29 11 -7 12 -12 3 -21 -8 -8 -18
-6 -37 7 -21 13 -30 14 -39 5 -9 -10 -8 -14 6 -22 9 -6 15 -14 12 -20 -9 -13
-49 -11 -63 3 -6 6 -15 8 -19 4 -4 -4 -1 -11 7 -17 13 -8 13 -10 0 -19 -22
-14 -46 -12 -60 5 -14 17 -56 20 -65 5 -3 -5 6 -15 21 -23 30 -16 29 -18 -44
-45 -35 -14 -65 -19 -88 -15 -34 6 -35 5 -28 -21 5 -23 3 -26 -21 -26 -14 0
-35 5 -46 10 -13 8 -25 8 -37 1 -15 -10 -15 -11 6 -17 13 -4 21 -12 19 -18 -6
-18 -40 -19 -53 -1 -13 18 -45 17 -51 -1 -2 -6 6 -14 18 -17 29 -8 14 -27 -22
-27 -17 0 -32 -6 -35 -15 -7 -17 -84 -22 -84 -5 0 6 -9 10 -20 10 -22 0 -26
-10 -10 -26 6 -6 8 -19 4 -28 -6 -15 -15 -17 -51 -13 -39 4 -43 3 -38 -14 8
-24 -26 -27 -45 -4 -16 19 -30 10 -30 -21 0 -27 -26 -32 -61 -14 -15 8 -19 7
-19 -4 0 -8 5 -16 12 -18 6 -2 8 -10 4 -16 -11 -18 -73 -15 -80 3 -6 17 -32
20 -41 6 -3 -5 2 -17 11 -25 14 -15 14 -17 -3 -23 -10 -3 -37 -15 -61 -25 -40
-17 -45 -18 -74 -4 -28 15 -32 14 -44 -2 -9 -12 -9 -21 -2 -30 18 -21 -7 -40
-32 -24 -28 17 -46 16 -30 -3 26 -31 -19 -48 -56 -20 -20 15 -56 20 -68 8 -4
-4 3 -15 16 -24 22 -17 22 -18 3 -24 -11 -4 -35 -13 -53 -21 -42 -18 -76 -18
-92 1 -18 22 -50 19 -50 -5 0 -11 7 -20 15 -20 21 0 19 -27 -3 -34 -9 -3 -33
-2 -51 4 -58 16 -105 -5 -63 -29 16 -10 16 -10 -2 -11 -11 0 -27 7 -37 16 -10
9 -23 13 -28 9 -14 -8 -14 -35 -1 -35 16 0 12 -17 -6 -24 -9 -3 -31 1 -49 10
-24 11 -39 13 -51 6 -16 -9 -15 -11 5 -21 12 -7 19 -16 16 -22 -10 -15 -61
-11 -75 6 -15 18 -51 16 -57 -1 -2 -6 6 -14 18 -17 11 -3 18 -10 14 -16 -8
-14 -72 -14 -80 -1 -3 6 -14 10 -23 10 -15 -1 -15 -2 2 -15 10 -7 15 -18 11
-24 -9 -15 -92 -14 -99 2 -3 8 -9 7 -20 -7 -12 -14 -13 -24 -5 -39 10 -18 8
-19 -23 -15 -18 3 -40 8 -48 11 -8 4 -22 3 -30 -3 -13 -8 -12 -11 5 -25 19
-15 18 -16 -17 -11 -21 4 -53 9 -72 12 -42 7 -58 -12 -20 -26 33 -13 26 -20
-34 -38 -83 -24 -108 -25 -136 -6 -21 13 -30 14 -39 5 -9 -10 -8 -14 5 -22 30
-17 20 -27 -34 -34 -29 -4 -68 -14 -85 -22 -25 -12 -40 -13 -62 -5 -28 10
-101 0 -101 -14 0 -3 14 -10 31 -16 23 -8 27 -13 17 -19 -21 -14 -56 -10 -83
7 -24 16 -55 13 -55 -5 0 -5 9 -11 21 -14 12 -3 18 -10 14 -16 -9 -16 -72 -13
-100 5 -26 17 -66 16 -72 -3 -3 -7 8 -13 24 -15 41 -4 30 -22 -17 -29 -26 -3
-51 0 -70 9 -33 16 -56 7 -26 -10 15 -8 16 -12 5 -19 -23 -14 -88 -10 -114 7
-16 10 -34 14 -50 10 -35 -9 -33 -36 3 -36 l27 0 -29 -25 c-35 -30 -33 -30
-93 -7 -35 13 -57 16 -81 10 -52 -14 -38 -35 21 -30 28 3 11 -15 -20 -21 -15
-3 -39 1 -54 8 -14 8 -43 15 -64 17 -46 4 -51 -6 -40 -88 6 -54 25 -76 25 -30
0 14 4 28 10 31 15 9 23 -42 12 -73 -15 -39 -23 -168 -15 -248 6 -56 8 -63 14
-39 4 17 7 60 8 98 0 37 5 67 10 67 24 0 29 -166 6 -230 -16 -44 -19 -97 -9
-124 10 -27 24 -7 24 34 0 21 4 41 9 44 24 15 29 -132 6 -168 -15 -22 -12 -56
5 -56 4 0 10 9 13 21 3 12 10 18 16 14 14 -8 14 -112 1 -120 -5 -3 -10 -18
-10 -32 0 -21 4 -24 23 -19 32 8 45 -19 45 -87 0 -31 5 -71 12 -88 12 -29 15
-30 26 -14 16 21 34 11 34 -19 0 -13 7 -29 15 -36 20 -16 19 -39 -2 -62 -13
-14 -14 -21 -5 -30 9 -9 15 -7 26 8 14 19 15 19 21 -1 4 -11 13 -32 21 -47 17
-31 18 -58 3 -58 -21 0 -2 -23 20 -25 42 -3 96 -95 56 -95 -20 0 -19 -24 1
-40 13 -11 16 -10 21 8 7 29 15 28 41 -8 25 -34 27 -43 10 -70 -7 -10 -9 -23
-4 -27 4 -4 12 0 17 9 8 15 12 14 35 -9 22 -22 25 -30 15 -45 -7 -11 -7 -18
-1 -18 5 0 10 5 10 12 0 7 27 -16 60 -50 33 -34 60 -70 60 -82 0 -14 7 -20 21
-20 17 0 19 -3 10 -14 -16 -19 10 -41 27 -24 10 10 18 5 40 -17 15 -17 41 -40
57 -52 25 -19 27 -24 15 -32 -8 -6 -11 -13 -7 -18 5 -4 12 -1 18 7 8 13 11 13
23 -2 7 -10 18 -18 24 -18 21 0 24 -21 6 -36 -18 -15 -18 -15 1 -11 11 3 26 6
34 8 7 2 16 -2 18 -8 3 -8 -3 -13 -13 -13 -17 0 -17 -1 -2 -17 12 -12 21 -13
30 -6 18 14 42 4 69 -30 19 -25 20 -33 12 -65 -9 -30 -9 -1732 -1 -2097 1 -33
-2 -106 -7 -163 -8 -100 -8 -102 13 -102 28 0 45 -34 39 -74 -3 -17 -2 -40 3
-51 7 -18 8 -19 15 -2 4 9 11 17 16 17 15 0 10 -52 -6 -70 -13 -14 -14 -22 -4
-44 15 -32 25 -33 33 -3 5 18 8 20 16 7 15 -23 12 -57 -7 -64 -13 -5 -14 -9
-4 -19 10 -9 14 -8 22 6 6 9 14 15 20 12 12 -8 12 -52 -1 -60 -13 -8 -13 -45
0 -45 6 0 10 5 10 10 0 6 7 10 15 10 8 0 15 -8 15 -19 0 -10 7 -24 15 -31 18
-15 20 -51 3 -68 -15 -15 19 -55 40 -47 8 3 23 -2 33 -11 15 -13 17 -25 13
-55 -4 -26 -3 -39 5 -39 6 0 11 7 11 15 0 22 21 18 27 -5 3 -11 9 -20 13 -20
19 0 21 -42 3 -55 -17 -13 -17 -14 1 -21 12 -5 21 -3 24 4 2 7 8 10 12 7 5 -3
6 -13 3 -22 -4 -11 -3 -14 6 -9 11 7 50 -29 51 -47 0 -4 15 -20 33 -37 29 -26
31 -31 19 -51 -17 -26 2 -55 19 -29 8 12 15 9 40 -20 17 -19 46 -51 66 -71 31
-33 33 -39 21 -58 -16 -27 0 -44 42 -44 16 0 30 -4 30 -9 0 -5 16 -25 35 -45
26 -26 34 -42 29 -57 -4 -16 -3 -18 5 -7 7 12 24 0 80 -56 39 -39 71 -74 71
-78 0 -4 16 -22 35 -41 19 -18 35 -38 35 -43 0 -6 14 -18 30 -28 24 -14 30
-24 30 -50 0 -33 13 -43 26 -21 5 8 14 3 28 -14 12 -14 33 -33 49 -43 30 -19
35 -35 12 -35 -18 0 -19 -9 -1 -33 12 -15 15 -15 26 -2 9 11 17 12 32 4 16 -9
19 -18 15 -45 -5 -31 -4 -33 15 -21 17 11 24 7 59 -33 29 -33 35 -46 24 -48
-8 -2 -15 -8 -15 -14 0 -6 8 -8 19 -5 15 3 18 0 14 -17 -4 -21 -4 -21 12 -1
15 20 17 19 55 -23 22 -24 40 -46 40 -49 0 -3 8 -12 18 -19 15 -12 15 -15 2
-23 -8 -6 -11 -13 -7 -18 5 -4 12 -1 17 7 8 13 11 13 22 1 10 -11 10 -14 1
-18 -7 -3 -13 -9 -13 -15 0 -6 7 -7 16 -4 10 4 31 -4 52 -21 70 -53 90 -83 56
-83 -9 0 -14 -5 -12 -12 6 -18 28 -21 28 -4 0 28 19 17 81 -46 49 -52 59 -67
54 -87 -6 -22 -4 -23 10 -11 12 10 19 10 28 1 9 -9 9 -14 -3 -21 -8 -5 -11
-13 -6 -17 5 -4 11 -2 13 5 3 6 11 12 19 12 17 0 19 -27 2 -33 -7 -2 -9 -8 -5
-13 4 -5 12 -2 17 6 7 12 12 12 21 3 9 -9 9 -16 -2 -29 -12 -15 -12 -16 10 -9
20 6 22 4 16 -14 -7 -22 10 -30 18 -8 3 8 14 2 33 -16 23 -23 25 -30 14 -37
-8 -5 -11 -13 -6 -17 5 -4 11 -2 13 5 3 6 11 12 19 12 17 0 19 -27 2 -33 -7
-2 -9 -8 -5 -13 4 -5 12 -2 17 6 7 12 12 12 22 2 10 -10 10 -15 -2 -22 -8 -5
-11 -12 -7 -17 5 -4 12 -1 17 7 7 12 12 12 21 3 9 -9 9 -16 -1 -28 -11 -13 -9
-15 11 -13 15 2 23 -2 22 -9 -2 -7 3 -10 10 -7 7 2 24 -7 37 -22 17 -18 21
-28 13 -31 -7 -3 -13 -10 -13 -16 0 -8 4 -7 12 1 15 15 38 16 38 1 0 -7 8 -18
18 -25 15 -12 15 -15 2 -23 -8 -6 -11 -13 -7 -18 5 -4 12 -1 17 7 8 12 21 3
66 -43 44 -45 54 -61 43 -67 -7 -5 -10 -12 -6 -17 5 -4 12 -1 17 7 7 12 12 12
22 2 10 -10 10 -15 -2 -22 -8 -5 -11 -12 -7 -17 5 -4 12 -1 17 7 7 11 13 9 34
-11 14 -13 26 -28 26 -32 0 -10 26 -37 35 -37 4 0 45 -38 92 -85 47 -47 92
-85 99 -85 17 0 18 12 3 27 -16 16 -1 53 22 53 10 0 19 -4 19 -10 0 -5 7 -10
15 -10 10 0 15 10 15 34 0 40 21 60 53 52 33 -8 41 3 20 27 -17 18 -17 20 7
39 23 19 25 19 37 2 10 -14 16 -15 25 -6 8 8 8 15 -2 27 -11 13 -10 19 6 36
10 11 26 18 36 16 10 -3 16 -1 13 4 -9 13 9 41 62 95 78 80 93 91 103 74 5 -8
12 -11 17 -7 4 5 1 12 -7 17 -12 7 -12 12 -2 22 10 10 15 10 22 -2 5 -8 12
-11 17 -7 4 5 1 12 -7 17 -12 8 -10 14 14 37 19 19 30 24 33 16 6 -18 19 -16
43 4 24 21 26 33 5 33 -8 0 -15 -7 -15 -15 0 -8 -7 -15 -15 -15 -22 0 -18 12
11 39 21 20 27 22 34 11 5 -8 12 -11 17 -7 4 5 1 12 -7 17 -12 7 -12 12 -2 22
10 10 15 10 22 -2 8 -12 12 -12 29 6 15 17 17 24 8 33 -18 19 30 56 50 40 20
-17 41 4 24 24 -13 17 -6 43 15 51 7 3 17 -2 22 -11 14 -24 32 -6 26 25 -7 34
18 61 39 43 11 -8 18 -6 31 8 11 12 14 21 7 26 -18 10 -13 33 10 45 15 9 24 8
35 -1 22 -18 42 4 23 27 -12 14 -4 25 69 95 45 44 82 83 82 87 0 4 14 16 30
25 17 10 30 24 30 32 0 7 17 28 38 47 22 18 47 46 57 61 11 18 25 27 35 24 11
-3 16 2 16 16 -1 13 11 29 30 42 17 11 48 42 70 69 66 83 146 157 176 163 23
4 26 8 17 19 -9 11 -6 20 15 41 22 22 29 24 36 13 5 -8 12 -11 17 -7 4 5 1 12
-6 16 -11 7 -10 13 5 33 10 13 29 32 42 42 20 15 26 16 33 5 7 -11 11 -10 23
6 10 14 11 24 4 32 -12 15 -2 32 27 43 12 5 25 21 29 35 9 34 75 98 93 90 8
-2 24 5 36 16 15 15 18 23 10 26 -19 7 -16 26 7 46 24 20 37 22 43 5 2 -7 8
-10 12 -5 5 4 3 13 -3 19 -7 7 -12 17 -12 23 0 11 46 67 113 138 20 22 37 44
37 51 1 6 10 22 21 35 18 22 23 23 40 13 19 -12 20 -11 13 23 -6 33 8 51 19
23 4 -10 7 -10 17 -1 11 10 10 14 -3 19 -23 9 -21 18 12 56 15 18 38 52 50 76
20 40 41 48 41 16 0 -19 19 -18 27 1 3 9 -2 24 -12 35 -15 17 -16 21 -2 47 9
15 18 36 21 46 6 21 26 23 26 3 0 -26 14 -25 34 2 l19 25 -22 -6 c-27 -7 -37
13 -21 43 11 21 12 21 26 3 12 -16 13 -14 8 24 -5 32 -2 50 11 69 16 24 17 25
30 7 11 -14 16 -15 26 -6 9 9 8 17 -5 37 -17 27 -22 96 -7 96 6 0 13 -4 16
-10 3 -5 10 -10 16 -10 13 0 11 37 -2 46 -15 9 -4 190 12 210 8 10 11 327 10
1150 l-2 1136 28 24 c15 13 48 34 72 46 35 17 45 18 52 7 4 -7 11 -10 16 -6 4
5 1 12 -6 16 -16 10 -6 31 15 31 8 0 14 5 14 11 0 6 8 9 19 6 14 -3 17 0 14
13 -3 12 3 23 19 31 12 6 40 30 61 52 36 39 38 40 51 21 12 -15 17 -17 27 -7
10 10 10 15 -4 25 -16 12 -16 15 -2 36 18 24 40 29 48 10 8 -20 28 13 21 35
-7 21 72 112 96 112 8 0 25 6 38 13 22 12 22 15 8 31 -12 13 -13 20 -4 29 8 8
15 7 25 -6 13 -15 14 -13 8 19 -4 27 -1 40 14 53 12 11 21 14 26 7 3 -6 10
-11 16 -11 13 0 11 28 -3 32 -13 5 15 75 38 93 7 6 14 19 16 29 4 24 28 34 28
12 0 -18 15 -22 25 -7 3 6 -2 14 -11 19 -9 5 -14 18 -12 32 4 32 24 36 32 8 6
-22 8 -21 25 12 9 19 15 37 13 40 -3 3 -7 -1 -9 -7 -3 -7 -9 -13 -14 -13 -12
0 -12 47 1 55 6 3 10 14 10 24 0 10 10 31 22 46 18 23 22 25 30 11 5 -9 13
-16 18 -16 14 0 12 44 -1 57 -7 7 -9 23 -5 37 7 28 26 36 26 11 0 -8 5 -15 10
-15 6 0 10 7 10 15 0 8 -4 15 -10 15 -13 0 -13 77 0 85 6 3 15 -6 20 -20 5
-14 14 -23 20 -20 15 9 12 59 -5 91 -8 16 -15 37 -15 46 0 23 20 34 31 17 8
-12 10 -12 18 0 6 10 5 25 -5 43 -11 20 -12 37 -6 61 l9 32 12 -30 13 -30 14
35 c14 31 14 40 0 84 -9 26 -16 64 -16 83 0 31 2 34 15 23 9 -7 17 -11 18 -9
1 2 10 14 20 26 17 19 17 24 4 50 -13 23 -14 49 -6 153 5 68 11 125 13 127 2
2 6 -24 10 -58 6 -62 11 -77 22 -67 12 12 4 234 -10 273 -12 34 -19 41 -50 46
-24 4 -49 0 -77 -13 -46 -20 -72 -17 -109 13 l-25 21 33 -6 c36 -6 44 11 16
35 -13 10 -22 10 -47 0 -39 -15 -84 -21 -116 -13 -20 4 -21 6 -7 14 9 5 16 13
16 18 0 15 -30 12 -47 -6 -12 -11 -26 -14 -57 -9 -56 9 -64 20 -24 34 26 9 30
14 18 21 -22 14 -53 12 -76 -5 -20 -15 -61 -19 -88 -9 -21 8 -10 24 15 24 12
0 19 5 16 13 -5 14 -35 14 -93 0 -51 -13 -79 -1 -50 20 19 14 19 15 -1 26 -16
8 -31 7 -67 -6 -25 -9 -49 -13 -53 -9 -4 5 -2 11 5 13 28 11 10 25 -24 19 -31
-6 -62 -1 -124 21 -11 4 -10 7 8 14 12 4 22 13 22 19 0 19 -30 22 -56 6 -28
-19 -95 -18 -101 0 -2 6 6 14 19 18 19 5 20 8 8 15 -10 7 -20 5 -31 -5 -18
-16 -85 -19 -94 -3 -4 6 2 13 14 16 12 3 21 12 21 20 0 12 -8 14 -32 9 -94
-17 -108 -18 -108 -7 0 6 7 11 15 11 8 0 15 4 15 9 0 14 -32 23 -44 11 -5 -5
-25 -10 -44 -10 -29 0 -32 2 -23 14 9 11 10 20 1 35 -12 23 -21 26 -37 10 -13
-13 -105 -8 -110 7 -2 6 6 15 19 19 21 7 22 7 3 12 -10 3 -21 0 -23 -6 -5 -14
-79 -14 -87 0 -4 6 2 13 14 16 12 3 21 9 21 14 0 19 -33 22 -60 5 -16 -9 -37
-16 -48 -16 -24 0 -37 16 -22 25 15 9 12 35 -4 35 -8 0 -16 -7 -20 -15 -5 -15
-47 -21 -60 -8 -4 4 3 15 16 25 l23 17 -25 9 c-18 7 -33 5 -53 -5 -35 -17 -57
-11 -57 17 0 11 -4 20 -10 20 -5 0 -10 -4 -10 -10 0 -15 -42 -11 -64 5 -20 15
-20 15 0 29 15 12 17 17 6 28 -10 10 -19 9 -46 -6 -33 -17 -36 -17 -88 -1 -73
24 -74 25 -47 46 l24 17 -28 7 c-20 5 -33 2 -47 -10 -13 -12 -27 -15 -45 -11
-28 7 -33 21 -9 30 8 3 12 11 8 17 -5 9 -11 7 -20 -6 -11 -15 -18 -16 -46 -7
-31 10 -32 11 -10 17 28 9 27 16 -3 38 -14 10 -26 13 -30 7 -8 -13 -82 -13
-90 -1 -3 5 -19 12 -35 16 -34 7 -38 19 -12 34 14 8 15 12 4 23 -10 10 -19 9
-47 -6 -22 -12 -43 -16 -61 -12 -25 7 -26 8 -9 26 17 19 17 20 -3 20 -11 0
-23 -4 -26 -9 -3 -5 -15 -7 -26 -4 -16 4 -18 8 -9 20 19 22 -5 41 -31 25 -24
-15 -60 -16 -60 -2 0 6 9 10 20 10 11 0 20 5 20 10 0 10 -8 11 -85 14 -37 1
-40 3 -38 29 2 27 -19 38 -33 16 -7 -13 -53 -7 -106 13 -49 19 -57 28 -30 35
12 3 22 9 22 14 0 20 -32 21 -65 3 -29 -15 -37 -16 -47 -5 -10 11 -10 14 0 18
6 3 12 9 12 14 0 13 -27 11 -49 -3 -10 -6 -27 -8 -37 -4 -19 7 -19 8 0 21 16
12 17 17 6 30 -15 18 -37 20 -43 3 -3 -9 -10 -7 -21 7 -13 17 -17 18 -25 6 -7
-11 -13 -12 -23 -4 -7 6 -30 13 -50 17 -42 8 -48 20 -18 36 11 6 18 15 15 21
-10 15 -43 10 -53 -7 -6 -11 -16 -14 -32 -9 -16 5 -19 10 -11 18 6 6 11 15 11
19 0 12 -34 10 -47 -3 -6 -6 -21 -9 -34 -7 -18 2 -24 9 -24 28 0 15 -6 26 -17
28 -10 2 -18 -1 -18 -7 0 -6 -9 -11 -21 -11 -15 0 -19 4 -15 16 6 16 -9 54
-22 54 -4 -1 -18 -10 -31 -21z m81 -129 c24 -7 52 -17 63 -24 11 -7 38 -19 60
-26 22 -7 67 -25 100 -40 67 -30 118 -49 154 -58 14 -3 43 -17 65 -32 23 -16
59 -33 81 -39 22 -6 49 -18 59 -26 11 -8 31 -15 46 -15 14 0 34 -6 45 -14 11
-7 31 -17 45 -21 14 -4 32 -13 40 -19 8 -7 42 -20 75 -31 33 -10 73 -29 88
-42 15 -12 44 -25 65 -29 41 -7 89 -29 110 -50 7 -8 24 -14 37 -14 30 0 118
-38 128 -55 4 -7 26 -16 50 -20 23 -4 66 -20 96 -36 30 -16 65 -29 78 -29 31
0 124 -39 140 -57 6 -8 40 -20 76 -28 36 -7 87 -24 113 -38 27 -13 74 -30 104
-37 30 -6 66 -20 80 -29 14 -10 65 -28 113 -41 48 -13 91 -29 95 -37 5 -7 37
-18 72 -24 36 -7 81 -20 101 -30 33 -16 115 -42 218 -69 19 -5 48 -15 65 -24
29 -14 159 -46 187 -46 7 0 20 -6 28 -13 9 -7 41 -19 71 -26 61 -14 170 -44
244 -66 26 -8 66 -15 87 -15 21 0 40 -4 43 -9 3 -5 21 -12 40 -15 20 -4 48
-13 63 -21 15 -8 43 -15 61 -15 18 0 35 -6 37 -12 3 -7 0 -67 -5 -133 -11
-138 -12 -146 -27 -200 -6 -22 -16 -80 -22 -130 -11 -84 -29 -168 -51 -240 -5
-16 -18 -63 -29 -103 -11 -41 -27 -82 -35 -91 -9 -10 -19 -33 -22 -52 -6 -29
-80 -201 -102 -235 -54 -83 -88 -130 -99 -137 -7 -4 -13 -13 -13 -19 0 -24
-42 -98 -56 -98 -8 0 -19 -12 -25 -27 -6 -16 -34 -51 -62 -79 -29 -28 -68 -69
-87 -91 -37 -43 -198 -194 -269 -253 -73 -61 -86 -74 -114 -116 l-28 -41 -4
-1034 c-2 -569 -6 -1068 -9 -1109 -3 -41 -8 -115 -11 -165 -4 -53 -14 -107
-25 -131 -10 -23 -21 -57 -25 -75 -10 -49 -36 -122 -51 -139 -7 -8 -20 -37
-29 -63 -9 -27 -29 -69 -46 -95 -16 -25 -29 -50 -29 -54 0 -5 -9 -19 -21 -31
-11 -12 -31 -43 -44 -69 -13 -26 -40 -64 -59 -83 -20 -19 -43 -49 -51 -65 -9
-17 -20 -30 -25 -30 -6 0 -18 -16 -28 -37 -9 -20 -28 -49 -42 -64 -14 -15 -45
-53 -70 -83 -88 -109 -181 -211 -201 -220 -11 -5 -22 -20 -25 -32 -3 -13 -15
-26 -25 -29 -11 -4 -26 -19 -33 -34 -8 -15 -34 -48 -58 -72 -24 -25 -63 -66
-86 -92 -24 -26 -47 -47 -51 -47 -4 0 -22 -20 -40 -45 -17 -24 -59 -70 -93
-102 -52 -49 -186 -183 -218 -218 -14 -15 -115 -117 -310 -315 -96 -97 -233
-239 -305 -315 -71 -75 -159 -165 -195 -199 -36 -33 -114 -111 -175 -172 -110
-111 -139 -134 -170 -134 -19 0 -255 234 -255 253 0 7 -13 18 -30 25 -16 7
-39 29 -50 48 -12 19 -25 34 -30 34 -4 0 -87 79 -185 175 -97 96 -180 175
-186 175 -5 0 -9 6 -9 14 0 15 -167 186 -182 186 -5 0 -14 13 -19 30 -6 16
-16 30 -23 30 -7 0 -42 30 -78 68 -36 37 -81 81 -99 98 -19 17 -56 58 -84 89
-27 32 -59 65 -69 74 -71 60 -99 89 -107 109 -5 12 -25 32 -44 43 -19 12 -35
26 -35 33 0 6 -13 23 -30 38 -19 16 -30 36 -30 52 0 22 -4 26 -30 26 -22 0
-33 6 -41 24 -6 13 -21 29 -33 36 -11 6 -52 49 -89 95 -63 77 -114 135 -185
210 -16 17 -38 46 -49 65 -12 19 -35 48 -52 64 -17 17 -31 37 -31 46 0 9 -11
22 -23 27 -27 12 -117 127 -117 149 0 7 -9 18 -20 24 -11 6 -29 29 -41 52 -11
22 -34 59 -50 81 -16 22 -29 48 -29 57 0 9 -9 25 -20 35 -11 10 -27 42 -37 71
-9 29 -27 65 -39 80 -13 14 -26 43 -29 63 -4 20 -18 68 -32 106 -50 140 -54
240 -54 1400 -1 484 -3 930 -6 992 l-6 112 -41 40 c-74 71 -85 80 -116 96 -17
9 -40 32 -51 50 -11 19 -29 37 -40 40 -23 7 -215 199 -259 258 -48 65 -87 122
-167 243 -18 28 -33 57 -33 65 0 9 -11 26 -24 38 -14 13 -30 37 -36 54 -6 18
-27 64 -46 103 -20 38 -39 86 -44 105 -5 18 -20 66 -33 104 -13 39 -30 95 -36
125 -7 30 -19 76 -27 101 -18 56 -43 268 -52 438 -8 147 -4 155 84 164 31 3
62 11 71 18 8 7 36 16 61 20 111 17 182 32 252 54 41 13 102 29 135 36 33 6
71 19 85 29 14 9 39 20 55 23 67 13 161 39 180 49 11 6 62 23 115 39 52 15
120 38 150 52 30 13 75 27 100 31 24 4 58 15 75 26 16 10 62 26 100 36 39 10
75 25 82 34 7 10 32 20 55 24 24 4 66 18 95 31 28 14 56 25 62 25 15 0 221 77
251 94 14 8 41 16 60 19 19 3 67 21 107 41 39 20 80 36 92 36 11 0 23 4 26 10
9 14 94 50 120 50 12 0 33 8 46 19 13 10 49 27 79 37 30 10 69 28 85 40 17 11
59 31 94 43 35 12 73 29 85 37 11 7 30 14 43 14 12 0 25 5 28 10 3 6 13 10 22
10 9 0 57 20 107 44 50 24 114 54 141 66 28 12 58 26 67 31 10 5 24 9 32 9 8
0 44 16 80 35 37 19 74 35 84 35 9 0 31 7 47 16 51 28 119 53 132 49 6 -2 31
-9 55 -15z m-3542 -2241 c0 -10 -4 -19 -10 -19 -5 0 -10 12 -10 26 0 14 4 23
10 19 6 -3 10 -15 10 -26z"/>
<path d="M4480 8584 c-38 -21 -136 -63 -164 -70 -14 -3 -30 -12 -37 -20 -6 -8
-22 -14 -34 -14 -12 0 -28 -7 -35 -15 -7 -8 -22 -15 -33 -15 -20 0 -80 -24
-139 -56 -14 -8 -31 -14 -37 -14 -7 0 -49 -18 -93 -40 -45 -22 -89 -40 -98
-40 -9 0 -25 -7 -36 -15 -10 -8 -29 -15 -40 -15 -12 0 -27 -6 -33 -14 -7 -8
-24 -17 -39 -20 -27 -7 -65 -23 -133 -58 -20 -10 -42 -18 -47 -18 -6 0 -44
-16 -85 -35 -41 -19 -80 -35 -88 -35 -9 0 -24 -7 -35 -15 -10 -8 -27 -15 -37
-15 -10 0 -35 -9 -55 -19 -70 -37 -243 -106 -329 -132 -18 -5 -35 -14 -38 -19
-4 -6 -16 -10 -28 -10 -12 -1 -40 -9 -62 -20 -22 -11 -47 -20 -55 -20 -8 0
-24 -7 -34 -15 -11 -8 -28 -15 -38 -15 -19 0 -134 -43 -180 -66 -14 -8 -35
-14 -45 -14 -11 0 -28 -7 -39 -15 -10 -8 -32 -15 -47 -15 -15 0 -41 -7 -56
-15 -16 -8 -46 -19 -67 -24 -22 -5 -55 -15 -74 -22 -115 -41 -142 -50 -210
-69 -41 -12 -90 -28 -108 -36 -18 -8 -44 -14 -58 -14 -14 0 -40 -6 -57 -14
-18 -8 -52 -19 -77 -25 -67 -15 -128 -31 -198 -52 -34 -10 -71 -19 -83 -19
-11 0 -36 -7 -57 -16 -20 -8 -57 -16 -82 -17 -76 -4 -74 4 -45 -177 8 -47 18
-114 24 -150 23 -148 57 -284 84 -337 10 -18 17 -38 17 -44 0 -7 9 -32 20 -56
11 -24 30 -64 42 -90 41 -89 206 -354 239 -383 3 -3 31 -36 63 -75 84 -100
191 -209 286 -290 86 -74 184 -145 199 -145 5 0 12 -7 15 -17 6 -14 8 -1234 4
-2038 -2 -365 14 -447 129 -680 29 -60 74 -141 98 -180 25 -38 48 -77 52 -85
17 -36 236 -327 288 -384 6 -6 53 -60 105 -121 79 -91 175 -193 350 -374 14
-14 54 -57 90 -96 127 -139 432 -456 740 -770 174 -176 367 -374 430 -440 63
-66 117 -121 120 -122 8 -4 23 9 54 47 34 43 208 222 585 605 158 160 360 369
451 465 90 96 205 218 255 270 133 138 213 225 285 310 35 41 85 98 110 125
60 67 190 228 234 290 81 115 186 273 196 295 16 36 36 70 49 83 6 6 11 18 11
26 0 8 6 22 14 30 8 9 33 52 55 96 39 79 51 131 71 301 4 39 8 581 9 1205 0
624 0 1138 1 1142 0 4 14 13 30 18 17 6 30 15 30 20 0 5 6 9 14 9 8 0 21 6 28
13 7 7 40 33 73 57 103 75 342 325 436 455 48 66 96 136 107 155 41 70 142
276 142 289 0 7 6 25 14 39 22 41 56 155 56 188 1 16 7 40 15 54 8 14 14 41
15 61 0 20 6 54 14 76 8 22 19 83 26 134 6 52 15 111 21 133 12 46 7 53 -51
66 -120 26 -168 39 -204 54 -21 9 -50 16 -65 16 -14 0 -39 7 -54 15 -15 8 -45
17 -65 21 -20 4 -49 13 -64 20 -15 8 -42 14 -60 14 -18 0 -42 7 -52 15 -11 8
-30 15 -43 15 -12 0 -37 6 -55 14 -40 17 -148 53 -203 67 -21 5 -44 14 -50 18
-5 5 -28 12 -49 16 -22 3 -49 13 -60 21 -11 8 -32 14 -46 14 -15 0 -35 7 -46
15 -10 8 -28 15 -39 15 -11 0 -42 9 -70 20 -27 10 -99 38 -160 61 -60 23 -124
48 -142 55 -17 8 -38 14 -46 14 -9 0 -28 7 -44 15 -25 13 -61 28 -238 97 -27
11 -66 24 -85 30 -19 6 -44 17 -55 24 -11 8 -29 14 -40 14 -11 0 -29 7 -39 15
-11 8 -26 15 -34 15 -8 0 -40 12 -71 26 -31 15 -92 42 -136 60 -44 17 -93 39
-110 48 -16 9 -35 16 -42 16 -6 0 -26 7 -45 16 -74 37 -90 44 -102 44 -6 0
-49 18 -94 40 -44 22 -86 40 -91 40 -10 0 -65 25 -123 56 -14 8 -35 14 -46 14
-11 0 -33 6 -49 14 -37 18 -81 38 -173 77 -41 17 -84 38 -95 45 -24 17 -62 16
-95 -2z m126 -99 c10 -8 29 -15 40 -15 12 0 27 -7 34 -15 7 -8 27 -15 45 -15
18 0 44 -9 58 -20 14 -11 32 -20 40 -20 23 0 31 -33 11 -47 -17 -12 -16 -13 3
-13 11 0 33 6 48 14 30 16 47 12 84 -16 13 -10 32 -18 42 -18 10 0 20 -4 23
-9 4 -5 24 -12 47 -16 40 -7 63 -33 52 -61 -6 -17 44 -26 65 -13 15 10 34 4
105 -30 48 -22 96 -41 107 -41 31 0 70 -19 70 -34 0 -8 14 -16 33 -19 83 -15
104 -21 126 -38 13 -11 28 -19 33 -19 6 0 21 -9 35 -20 14 -11 30 -17 35 -14
9 6 102 -30 160 -62 14 -8 39 -14 56 -14 16 0 35 -7 42 -15 7 -8 20 -15 29
-15 9 0 28 -6 43 -14 15 -8 40 -17 57 -21 38 -8 127 -51 136 -65 3 -5 22 -10
42 -10 32 0 78 -17 155 -56 14 -8 42 -14 61 -14 19 0 40 -7 47 -15 7 -8 20
-15 29 -15 10 0 32 -11 49 -24 18 -13 54 -26 82 -30 27 -4 61 -13 77 -21 15
-8 37 -15 48 -15 11 0 29 -7 39 -15 11 -8 34 -15 51 -15 17 0 48 -9 70 -20 22
-11 45 -20 52 -20 7 0 13 -4 13 -10 0 -5 19 -10 41 -10 23 0 60 -9 83 -19 37
-17 85 -32 226 -70 104 -28 131 -38 142 -49 7 -7 33 -12 59 -12 55 0 145 -40
129 -56 -7 -7 0 -20 20 -39 29 -28 30 -32 30 -121 0 -65 -4 -95 -14 -103 -13
-11 -23 -43 -46 -143 -5 -24 -15 -68 -22 -98 -6 -30 -25 -86 -40 -125 -15 -38
-28 -76 -28 -83 0 -7 -10 -26 -22 -42 -15 -21 -25 -27 -34 -20 -17 15 -25 -13
-18 -60 6 -33 3 -40 -20 -55 -14 -10 -26 -24 -26 -31 0 -8 -4 -14 -10 -14 -5
0 -10 7 -10 15 0 8 -7 15 -15 15 -17 0 -21 -35 -5 -45 19 -12 10 -40 -25 -80
-19 -22 -39 -45 -45 -52 -5 -7 -10 -17 -10 -24 0 -7 -9 -9 -24 -5 -25 6 -51
-14 -28 -22 7 -2 12 -9 12 -16 0 -16 -38 -51 -46 -43 -4 3 -16 2 -26 -4 -15
-8 -19 -18 -15 -37 7 -33 -25 -77 -49 -68 -36 14 -114 -47 -90 -71 7 -8 -12
-43 -24 -43 -5 0 -7 7 -4 15 7 18 -5 19 -28 1 -23 -17 -23 -26 2 -26 27 0 25
-12 -5 -40 -20 -18 -28 -21 -37 -12 -15 15 -55 16 -64 1 -3 -6 -1 -16 5 -22
19 -19 12 -36 -21 -51 -18 -7 -50 -28 -72 -45 -21 -17 -43 -31 -47 -31 -5 0
-18 -18 -29 -40 -20 -39 -20 -57 -24 -1237 -2 -804 -7 -1213 -14 -1243 -22
-93 -35 -136 -48 -162 -8 -14 -14 -33 -14 -42 0 -9 -7 -19 -15 -22 -8 -3 -17
-15 -20 -25 -5 -15 -10 -17 -19 -10 -18 15 -26 3 -19 -30 4 -23 -3 -41 -35
-88 -22 -32 -43 -68 -47 -80 -4 -14 -12 -20 -22 -17 -10 4 -13 1 -8 -13 3 -10
-1 -24 -10 -31 -8 -7 -15 -19 -15 -27 0 -8 -16 -30 -35 -50 -19 -20 -35 -40
-35 -46 0 -12 -57 -77 -67 -77 -5 0 -9 5 -9 10 -3 23 -5 24 -19 6 -17 -22 -20
-50 -5 -41 16 10 12 -18 -6 -43 -9 -14 -22 -21 -31 -18 -9 4 -13 0 -11 -12 1
-9 -5 -28 -14 -41 -14 -20 -20 -22 -32 -11 -17 14 -22 7 -28 -39 -3 -22 -39
-51 -95 -77 -7 -4 -13 -19 -13 -35 0 -17 -5 -29 -13 -29 -7 0 -17 -10 -22 -22
-6 -13 -23 -30 -40 -38 -16 -8 -31 -24 -33 -35 -6 -40 -11 -48 -25 -36 -21 17
-56 -21 -50 -53 4 -19 1 -26 -11 -26 -9 0 -16 -6 -16 -13 0 -7 -10 -17 -22
-22 -13 -6 -27 -20 -33 -33 -7 -15 -18 -22 -37 -22 -16 0 -28 -5 -28 -11 0 -6
7 -9 15 -5 9 3 15 0 15 -9 0 -8 -4 -15 -10 -15 -5 0 -10 -7 -10 -15 0 -8 -5
-15 -11 -15 -16 0 -75 -57 -125 -122 -25 -31 -57 -65 -72 -74 -16 -9 -43 -38
-62 -65 -34 -51 -68 -79 -95 -79 -10 0 -15 -7 -14 -17 4 -22 -18 -63 -33 -63
-6 0 -17 8 -24 18 -13 16 -15 16 -29 -3 -9 -11 -14 -28 -11 -39 6 -24 -14 -56
-31 -49 -8 3 -13 -3 -13 -16 0 -31 -30 -63 -47 -50 -14 13 -43 5 -43 -11 0 -5
7 -10 15 -10 20 0 19 -7 -5 -32 -11 -12 -33 -23 -49 -24 -42 -3 -51 -11 -51
-44 0 -21 -10 -39 -36 -62 -71 -66 -110 -105 -142 -144 -27 -32 -34 -36 -42
-24 -8 13 -11 13 -26 -2 -16 -16 -16 -18 -1 -24 24 -9 21 -19 -7 -32 -18 -8
-26 -8 -28 0 -7 19 -28 -2 -28 -27 0 -13 -11 -36 -24 -52 -20 -23 -26 -25 -39
-15 -18 15 -32 0 -23 -24 7 -19 -23 -54 -41 -47 -19 8 -54 -27 -48 -47 3 -11
-6 -28 -25 -47 -24 -23 -37 -29 -61 -25 -17 2 -33 11 -36 18 -7 20 -31 17 -35
-3 -2 -13 -9 -10 -33 16 -17 17 -41 42 -54 54 -13 12 -28 27 -33 32 -72 80
-90 104 -95 126 -4 20 -10 25 -27 22 -14 -3 -30 5 -45 21 -24 26 -24 26 -3 26
30 0 37 17 10 25 -13 4 -33 17 -45 28 -13 11 -26 17 -30 14 -11 -11 -33 14
-33 39 0 28 -16 40 -24 17 -6 -14 -12 -11 -41 17 -34 33 -45 60 -25 60 13 0
13 23 -1 37 -8 8 -18 8 -35 1 -21 -10 -31 -3 -113 83 -67 69 -88 96 -80 106 8
9 3 22 -16 48 -29 37 -39 42 -50 24 -4 -6 2 -13 14 -16 12 -3 21 -12 21 -19 0
-8 5 -14 10 -14 6 0 10 -4 10 -10 0 -18 -34 4 -82 53 -45 46 -52 57 -49 82 0
6 -13 16 -29 23 -19 9 -30 21 -30 34 0 11 -9 33 -21 50 -18 24 -26 28 -49 23
-25 -6 -30 -3 -41 29 -7 20 -19 36 -25 36 -7 0 -16 9 -19 21 -4 11 -18 24 -31
29 -18 7 -24 17 -24 40 0 16 -4 30 -10 30 -5 0 -10 -5 -10 -10 0 -20 -47 24
-76 72 -16 26 -38 51 -49 54 -24 7 -214 200 -234 237 -8 15 -23 27 -33 27 -10
0 -18 4 -18 10 0 5 -18 28 -40 52 -22 24 -42 50 -45 58 -3 8 -18 24 -35 35
-32 22 -47 48 -31 53 6 2 11 8 11 14 0 7 -4 7 -13 0 -10 -9 -18 -6 -32 11 -47
53 -96 124 -101 144 -4 13 -10 20 -15 17 -11 -7 -59 36 -59 53 0 6 -16 31 -36
55 -20 23 -42 54 -48 68 -9 22 -58 100 -106 170 -45 67 -112 212 -106 233 4
16 -1 29 -14 40 -11 9 -20 26 -20 37 0 12 -8 35 -17 53 -17 30 -18 111 -21
1239 l-3 1206 -46 52 c-29 33 -47 62 -48 78 0 27 -25 45 -25 18 0 -32 -38 -15
-92 42 -30 31 -58 70 -62 85 -6 25 -11 28 -39 25 -30 -3 -32 -1 -29 25 3 27 0
29 -43 31 -13 1 -19 7 -17 19 1 9 3 25 5 35 1 13 -4 16 -29 14 -34 -3 -58 17
-59 51 0 15 -9 23 -32 29 -30 8 -52 33 -69 81 -3 9 -10 17 -15 17 -5 0 -16 14
-24 31 -13 24 -14 34 -4 45 11 14 4 19 -27 15 -6 -1 -21 10 -34 24 -20 22 -22
29 -12 45 6 11 9 27 5 36 -6 15 -7 15 -20 -2 -7 -10 -13 -13 -13 -6 0 6 -9 20
-21 30 -11 11 -30 48 -42 84 -13 35 -33 74 -45 86 -12 12 -22 34 -22 51 0 16
-7 35 -16 42 -12 10 -15 25 -11 57 3 26 1 39 -4 31 -4 -7 -12 -10 -16 -5 -9 9
-29 112 -38 201 -4 33 -11 69 -15 80 -17 39 -39 126 -35 138 4 10 10 54 14
100 2 19 21 4 21 -17 0 -34 18 -42 29 -14 5 13 7 26 4 30 -2 4 19 19 46 33 36
17 66 25 104 25 34 0 59 5 66 14 6 7 33 16 61 19 27 3 59 12 72 20 13 8 43 18
67 21 24 4 56 13 72 22 16 8 46 16 67 18 20 2 51 11 67 20 17 9 44 16 61 16
19 0 34 6 38 15 3 9 18 15 39 15 19 0 40 7 47 15 7 8 23 15 37 15 13 0 57 11
96 24 40 13 106 34 147 46 41 12 79 26 84 31 6 5 17 9 27 9 9 0 28 9 42 20 14
11 38 20 54 20 16 0 38 7 49 15 10 8 28 15 39 15 11 0 30 7 41 14 12 8 43 20
70 27 27 7 80 27 119 45 38 19 80 34 91 34 12 0 48 14 79 30 31 17 62 30 69
30 6 0 22 6 36 13 14 8 41 17 60 20 18 4 41 14 50 22 9 8 37 19 63 24 25 4 53
16 62 25 9 9 22 16 29 16 8 0 19 7 26 15 14 17 61 20 76 5 7 -7 19 -7 35 -1
16 7 19 10 7 10 -35 2 -26 19 23 45 28 14 62 26 76 26 23 0 62 15 73 29 8 10
114 51 133 51 9 0 17 4 17 9 0 5 10 13 22 17 12 3 28 13 36 20 7 8 31 14 53
14 30 0 39 -4 39 -17 0 -14 2 -15 13 -4 10 11 10 14 0 18 -7 3 -13 9 -13 13 0
15 100 60 131 60 25 0 63 14 79 30 36 36 76 52 117 47 35 -4 43 -2 39 9 -3 9
1 14 13 14 10 0 26 9 36 20 15 16 31 20 85 20 43 0 73 -5 86 -15z m2634 -2493
c0 -13 -12 -22 -22 -16 -10 6 -1 24 13 24 5 0 9 -4 9 -8z"/>
<path d="M4390 7974 c-41 -19 -82 -39 -90 -44 -16 -11 -56 -30 -127 -63 -24
-10 -45 -22 -48 -27 -3 -4 -16 -11 -29 -14 -24 -6 -157 -63 -206 -89 -146 -76
-263 -127 -355 -154 -11 -4 -33 -17 -48 -30 -16 -12 -38 -23 -50 -23 -12 0
-49 -13 -82 -29 -74 -36 -201 -87 -275 -110 -30 -10 -64 -22 -75 -28 -45 -23
-94 -42 -165 -63 -41 -13 -80 -27 -85 -31 -6 -4 -29 -13 -50 -18 -92 -23 -144
-40 -174 -55 -17 -9 -50 -21 -74 -25 -23 -5 -67 -19 -97 -31 -30 -12 -64 -24
-75 -27 -63 -16 -163 -46 -180 -54 -11 -5 -45 -16 -75 -23 -51 -13 -102 -29
-190 -62 -19 -7 -57 -16 -85 -19 -27 -4 -54 -10 -60 -15 -5 -4 -25 -11 -43
-15 -18 -4 -32 -13 -32 -21 0 -17 65 -19 125 -3 22 6 67 15 99 20 33 5 64 13
70 18 6 5 27 11 46 14 19 3 55 12 80 20 25 9 86 27 135 42 134 40 174 54 205
70 16 8 42 15 57 15 15 1 39 7 53 15 14 8 34 14 45 15 11 0 33 7 49 15 16 9
46 20 65 25 20 5 54 15 76 24 116 44 214 78 244 86 18 5 38 13 44 19 6 6 18
11 26 11 17 0 210 75 349 136 17 8 49 21 70 30 20 9 50 22 65 30 16 8 34 14
40 14 7 0 26 7 42 16 17 8 64 30 105 48 167 74 312 142 421 197 42 22 83 39
91 39 9 0 21 7 28 15 7 8 19 15 28 15 8 0 23 6 31 13 9 7 41 24 71 37 30 13
64 32 75 41 33 28 57 27 74 -3 13 -23 13 -32 3 -62 -10 -27 -12 -615 -8 -2896
2 -1574 6 -2864 9 -2866 2 -3 13 8 23 23 18 27 19 70 21 1158 5 2260 4 4533
-3 4559 -3 15 -1 32 5 40 10 12 16 12 39 1 15 -7 45 -20 67 -28 84 -31 153
-60 230 -97 44 -21 98 -45 120 -54 22 -10 52 -24 67 -32 14 -7 31 -14 38 -14
6 0 38 -13 72 -30 33 -16 64 -30 69 -30 7 0 54 -20 154 -65 17 -8 55 -24 85
-36 30 -12 69 -28 87 -35 17 -8 38 -14 46 -14 9 0 18 -4 22 -10 3 -5 20 -14
38 -19 39 -12 155 -58 179 -71 10 -6 23 -10 30 -10 7 0 25 -6 40 -14 15 -8 42
-17 60 -21 18 -4 38 -11 43 -15 6 -4 51 -21 100 -38 50 -17 122 -43 160 -58
39 -15 86 -30 105 -35 19 -4 67 -19 105 -32 74 -26 281 -91 405 -127 41 -12
91 -28 110 -36 19 -7 53 -16 75 -20 22 -4 49 -13 60 -20 11 -8 31 -14 45 -14
14 0 47 -7 74 -15 61 -19 139 -20 134 -3 -3 7 -24 16 -48 20 -24 4 -58 14 -76
23 -18 8 -46 15 -62 15 -17 0 -33 4 -37 9 -3 5 -20 12 -38 16 -17 4 -61 17
-97 29 -36 13 -81 29 -100 36 -19 6 -54 16 -77 21 -46 9 -107 28 -233 70 -46
16 -92 29 -102 29 -10 0 -41 11 -68 25 -27 14 -59 25 -71 25 -11 0 -33 6 -47
14 -15 7 -67 27 -117 43 -49 17 -121 42 -160 57 -38 15 -86 32 -105 38 -19 5
-39 14 -45 19 -5 5 -19 9 -31 9 -12 0 -35 6 -51 14 -64 31 -99 46 -126 52 -16
4 -55 19 -86 34 -31 15 -79 35 -106 44 -28 10 -69 28 -92 42 -23 13 -50 24
-60 24 -11 0 -28 7 -39 15 -10 8 -28 15 -40 15 -11 0 -29 7 -40 15 -10 8 -26
15 -34 15 -8 0 -32 9 -53 20 -20 11 -43 20 -51 20 -8 0 -46 15 -83 34 -101 51
-158 76 -172 76 -7 0 -24 9 -38 20 -14 11 -31 20 -38 20 -7 0 -26 7 -41 15
-16 8 -36 15 -45 15 -9 0 -22 6 -28 13 -6 8 -30 20 -53 27 -24 8 -63 29 -87
47 -24 18 -55 33 -70 33 -14 -1 -60 -16 -101 -36z"/>
<path d="M3015 7870 c-7 -11 39 -25 54 -15 6 3 11 10 11 16 0 12 -57 12 -65
-1z"/>
<path d="M6388 7713 c12 -2 30 -2 40 0 9 3 -1 5 -23 4 -22 0 -30 -2 -17 -4z"/>
<path d="M7513 7349 c11 -7 23 -7 35 0 14 9 11 10 -18 10 -29 0 -32 -1 -17
-10z"/>
<path d="M2155 6910 c3 -5 15 -10 25 -10 10 0 22 5 25 10 4 6 -7 10 -25 10
-18 0 -29 -4 -25 -10z"/>
<path d="M1838 6845 c-2 -3 -39 -9 -81 -15 -82 -10 -136 -35 -118 -53 8 -8 28
-7 69 1 80 16 272 15 357 -3 38 -8 83 -15 99 -15 16 0 52 -6 80 -14 28 -8 71
-19 96 -24 52 -12 201 -65 245 -89 17 -8 48 -25 71 -37 70 -39 186 -130 271
-214 45 -45 93 -84 107 -88 20 -5 39 3 86 35 33 23 71 41 84 41 13 0 26 7 30
15 3 8 12 15 20 15 8 0 21 6 28 13 7 7 36 18 63 25 28 6 90 20 140 32 49 11
140 23 202 27 l113 6 0 -184 c-1 -548 10 -2634 16 -2873 l6 -279 29 -63 c16
-35 29 -69 29 -77 0 -12 24 -63 45 -97 5 -8 19 -42 31 -75 21 -59 74 -175 112
-245 11 -19 27 -51 37 -70 65 -128 123 -235 164 -303 13 -21 35 -60 50 -87 14
-26 38 -70 53 -98 35 -65 94 -122 125 -122 26 0 93 45 93 63 0 5 17 33 39 61
45 60 117 187 216 381 39 77 76 149 83 160 6 11 19 38 28 60 9 22 32 70 50
108 19 37 34 72 34 78 0 6 18 48 40 94 22 46 40 92 40 102 0 10 6 27 13 38 41
62 43 102 52 875 3 283 8 607 11 720 2 113 6 567 9 1010 3 443 8 811 11 819 4
12 30 13 154 8 83 -4 168 -13 192 -21 24 -8 59 -17 78 -21 19 -4 48 -13 65
-21 16 -7 48 -20 70 -30 22 -9 76 -40 120 -69 98 -63 108 -67 132 -50 10 8 25
15 34 15 9 0 25 12 34 28 46 72 193 204 294 265 51 30 149 77 162 77 5 0 32
11 61 24 74 34 127 46 254 61 61 7 116 15 123 19 19 12 316 8 381 -5 46 -9 64
-9 73 0 8 8 4 11 -16 11 -15 0 -39 7 -52 16 -39 25 -298 31 -466 10 -74 -9
-152 -21 -174 -27 -22 -5 -58 -14 -80 -19 -22 -5 -53 -16 -70 -24 -16 -9 -36
-16 -43 -16 -33 0 -222 -108 -297 -170 -81 -67 -205 -210 -205 -236 0 -21 -43
-17 -57 5 -17 28 -114 91 -203 133 -128 60 -264 88 -449 91 l-160 2 -5 -625
c-9 -973 -22 -1922 -31 -2220 -2 -74 -7 -229 -10 -343 -6 -215 -10 -234 -58
-332 -13 -27 -27 -61 -31 -75 -22 -77 -286 -615 -351 -715 -18 -27 -44 -73
-58 -102 -15 -28 -40 -61 -57 -73 -25 -18 -30 -28 -30 -61 0 -34 -3 -39 -23
-39 -27 0 -51 23 -62 60 -4 13 -39 75 -76 137 -38 61 -69 115 -69 119 0 3 -15
32 -34 63 -19 31 -62 110 -96 176 -34 66 -66 124 -71 130 -5 5 -9 15 -9 23 0
7 -15 46 -34 85 -89 188 -116 249 -116 262 0 7 -6 26 -14 42 -57 115 -53 37
-57 998 -2 484 -4 1243 -4 1687 0 530 -3 809 -10 812 -25 9 -354 -13 -400 -27
-160 -49 -194 -61 -235 -79 -25 -11 -52 -24 -60 -29 -8 -5 -22 -12 -30 -16 -8
-4 -35 -22 -60 -41 l-45 -34 -14 24 c-34 54 -214 215 -296 265 -83 49 -295
143 -325 143 -8 0 -32 6 -55 14 -101 35 -487 81 -507 61z"/>
<path d="M2840 6029 c-22 -49 -41 -79 -51 -79 -5 0 -9 -7 -9 -15 0 -9 -10 -37
-23 -63 -13 -26 -29 -67 -36 -92 -7 -25 -18 -55 -24 -68 -6 -12 -11 -37 -13
-55 -1 -17 -7 -50 -13 -72 -12 -46 -18 -2325 -6 -2388 4 -20 11 -40 16 -43 5
-3 9 -13 9 -23 0 -10 14 -35 30 -56 17 -21 30 -43 30 -49 1 -6 23 -38 50 -71
28 -33 69 -84 92 -114 23 -30 49 -64 59 -75 10 -12 57 -68 104 -125 47 -57 98
-116 113 -130 15 -14 54 -58 87 -96 129 -151 762 -785 955 -957 41 -37 101
-91 133 -121 32 -30 74 -62 95 -72 20 -10 44 -22 53 -26 30 -14 105 24 179 91
40 36 83 72 95 80 12 8 29 22 37 30 8 8 114 110 234 225 303 291 657 652 742
755 15 18 61 69 103 114 71 75 120 132 202 230 17 22 52 63 77 92 62 71 89
108 129 173 60 100 62 141 63 1279 0 1019 -6 1225 -38 1317 -8 23 -14 51 -14
63 0 12 -9 39 -20 59 -11 21 -20 45 -20 53 0 9 -19 54 -42 100 -42 86 -92 150
-115 150 -18 0 -17 -5 11 -48 14 -20 28 -50 32 -67 4 -16 11 -35 15 -41 15
-19 91 -227 101 -274 5 -25 13 -70 18 -100 6 -32 10 -541 11 -1205 1 -1329 13
-1186 -113 -1348 -103 -131 -245 -301 -321 -382 -35 -39 -83 -92 -107 -120
-221 -257 -823 -857 -1130 -1126 -110 -97 -104 -95 -170 -41 -30 26 -57 49
-60 52 -3 3 -21 18 -40 34 -19 16 -69 60 -110 99 -413 389 -430 406 -728 712
-113 115 -248 260 -317 340 -33 38 -77 87 -98 109 -20 23 -54 63 -75 89 -20
27 -62 77 -92 112 -115 133 -216 288 -234 360 -7 28 -8 2167 -1 2315 4 79 25
193 38 206 4 4 7 14 7 23 0 9 16 50 36 91 37 77 41 84 76 151 15 29 18 43 10
51 -8 8 -14 5 -22 -13z"/>
<path d="M6023 6004 c-3 -9 -3 -188 1 -398 9 -503 9 -2118 0 -2246 -9 -132 -6
-127 -298 -460 -65 -74 -127 -144 -137 -155 -10 -11 -71 -78 -135 -150 -64
-71 -132 -146 -151 -165 -97 -99 -191 -198 -303 -320 -69 -74 -150 -159 -180
-188 -30 -29 -58 -56 -62 -60 -4 -4 -40 -41 -80 -83 -87 -90 -137 -129 -166
-129 -12 0 -36 15 -55 33 -18 17 -51 47 -73 66 -105 90 -443 433 -609 619 -35
40 -92 100 -214 227 -26 28 -78 86 -115 130 -36 44 -75 89 -86 100 -11 11 -24
25 -29 30 -34 36 -103 116 -127 150 -32 44 -67 87 -102 122 -31 34 -95 122
-118 163 -18 34 -19 75 -24 995 -3 528 -3 1100 0 1272 3 172 3 343 0 380 -5
68 -5 68 -19 36 -11 -26 -13 -264 -13 -1336 0 -717 3 -1314 7 -1327 9 -27 61
-115 87 -145 9 -11 44 -54 78 -95 112 -136 273 -323 354 -411 28 -31 68 -76
90 -100 21 -24 91 -100 155 -168 64 -69 129 -138 145 -155 178 -192 384 -402
476 -484 41 -37 99 -90 129 -119 30 -29 61 -53 70 -53 29 0 707 684 966 975
49 55 92 102 96 105 4 3 23 25 44 50 30 36 167 187 220 244 72 76 194 233 214
276 24 53 25 65 31 305 12 427 11 1582 0 1960 -8 261 -16 383 -28 443 -16 80
-26 98 -39 66z"/>
<path d="M6712 3039 c1 -13 8 -23 13 -21 15 3 12 35 -3 40 -9 3 -13 -3 -10
-19z"/>
<path d="M6557 2774 c-8 -8 1 -24 14 -24 5 0 9 7 9 15 0 15 -12 20 -23 9z"/>
<path d="M2580 2520 c0 -19 3 -21 12 -12 9 9 9 15 0 24 -9 9 -12 7 -12 -12z"/>
<path d="M2858 2193 c6 -2 12 -13 12 -24 0 -10 7 -19 15 -19 8 0 15 4 15 8 0
12 -34 42 -46 41 -5 0 -3 -3 4 -6z"/>
<path d="M1750 7630 c0 -5 9 -10 19 -10 11 0 23 5 26 10 4 6 -5 10 -19 10 -14
0 -26 -4 -26 -10z"/>
<path d="M7920 6908 c0 -36 4 -35 14 5 4 16 2 27 -4 27 -5 0 -10 -14 -10 -32z"/>
<path d="M3836 8652 c-3 -6 -1 -14 5 -17 15 -10 25 3 12 16 -7 7 -13 7 -17 1z"/>
<path d="M5180 8640 c0 -5 7 -10 15 -10 8 0 15 5 15 10 0 6 -7 10 -15 10 -8 0
-15 -4 -15 -10z"/>
<path d="M6050 8280 c0 -5 7 -10 15 -10 8 0 15 5 15 10 0 6 -7 10 -15 10 -8 0
-15 -4 -15 -10z"/>
<path d="M1985 7920 c3 -5 15 -10 26 -10 10 0 19 5 19 10 0 6 -12 10 -26 10
-14 0 -23 -4 -19 -10z"/>
<path d="M7161 5524 c-21 -18 -31 -35 -31 -54 0 -36 16 -48 26 -18 3 12 20 33
35 47 55 48 25 72 -30 25z"/>
<path d="M7138 5394 c-11 -11 -10 -484 1 -484 5 0 10 8 12 18 7 32 -6 474 -13
466z"/>
<path d="M1790 5285 c0 -10 7 -15 18 -13 21 4 19 22 -2 26 -10 2 -16 -3 -16
-13z"/>
<path d="M7130 4556 c0 -159 4 -257 10 -261 6 -3 10 0 10 7 4 211 5 477 2 491
-2 9 -8 17 -13 17 -5 0 -9 -114 -9 -254z"/>
<path d="M1792 4143 c4 -98 23 -100 23 -1 0 49 -4 73 -13 76 -10 3 -12 -14
-10 -75z"/>
<path d="M7137 4193 c-12 -11 -8 -753 3 -753 6 0 11 6 11 13 3 20 -3 742 -5
745 -2 1 -6 -1 -9 -5z"/>
<path d="M7100 3146 c0 -63 16 -83 25 -33 9 44 3 79 -12 85 -9 3 -13 -12 -13
-52z"/>
<path d="M6827 2484 c-8 -8 1 -24 14 -24 5 0 9 7 9 15 0 15 -12 20 -23 9z"/>
<path d="M5946 1441 c-18 -20 -20 -31 -6 -31 6 0 10 6 10 14 0 8 8 16 18 18
11 2 13 6 6 10 -6 4 -19 -1 -28 -11z"/>
<path d="M5770 1265 c0 -10 7 -15 18 -13 21 4 19 22 -2 26 -10 2 -16 -3 -16
-13z"/>
<path d="M4893 387 c-22 -11 -37 -43 -27 -59 3 -4 16 -8 30 -8 27 0 51 38 41
64 -7 18 -13 18 -44 3z"/>
</g>
</svg>
